<svg width="97" height="41" viewBox="0 0 97 41" fill="none" xmlns="http://www.w3.org/2000/svg">
<path d="M56.6109 13.1114C54.377 13.0296 52.9331 14.973 53.0329 17.1615L55.7936 17.4975C55.8209 16.8528 55.8299 16.208 56.3385 15.872C56.62 15.7358 56.9832 15.8175 57.1013 16.1263C57.3919 16.9981 57.2284 17.8426 56.8198 18.6508L53.2418 25.271V27.7774H59.9255V25.0349H56.5837C57.1467 23.8816 59.6168 19.5499 59.9074 18.4147C60.5975 15.9537 59.7621 12.8934 56.6109 13.1114ZM15.8185 13.2385H11.95V27.7683H15.6278C19.7416 27.85 19.1059 23.6091 19.1513 20.4852C19.006 17.4703 19.9867 13.0205 15.8185 13.2385ZM21.0311 13.2385V27.7683H23.8735V22.1107H24.4365L26.1528 27.7683H29.0588L26.9701 21.466C29.3403 19.8314 29.2495 14.2737 26.1347 13.4564C25.0358 13.0659 22.1935 13.3021 21.0311 13.2385ZM30.1122 13.2385V27.7683H32.9546V13.2385H30.1122ZM34.2169 13.2385L36.9684 27.7683H40.5646L43.3434 13.2385H40.2558C39.8835 15.6359 39.1298 20.7849 38.8573 23.1551H38.7302L38.2035 19.0413L37.3317 13.2385H34.2169ZM44.642 13.2385V27.7683H51.3075V25.0349H47.4844V21.7566H50.9534V19.0232H47.4844V15.9537H51.3075V13.2385H44.642ZM67.3448 13.2385V27.7683H70.1872V22.1107H70.7502L72.4666 27.7683H75.3725L73.2839 21.466C75.654 19.8314 75.5632 14.2737 72.4484 13.4564C71.3496 13.0659 68.5072 13.3021 67.3448 13.2385ZM76.2715 13.2385V24.2176C76.2715 26.6695 77.5066 27.8954 79.9766 27.8954C82.4376 27.8863 83.709 26.7149 83.6999 24.2176V13.2385H80.8121V24.2811C80.9302 25.4889 79.005 25.4798 79.123 24.2811V13.2385H76.2715ZM23.8735 15.9537C24.9995 15.8539 25.8986 16.2534 25.8532 17.5611C25.8895 18.9414 25.163 19.4954 23.8735 19.3773V15.9537ZM70.1872 15.9537C71.3132 15.8539 72.2123 16.2534 72.1669 17.5611C72.2032 18.9414 71.4767 19.4954 70.1872 19.3773V15.9537ZM14.7742 15.9719H15.3009C16.209 15.9628 16.3361 16.426 16.3634 17.2251V23.7817C16.3361 24.6081 16.2181 25.0349 15.3009 25.0349H14.7742C14.7651 25.0349 14.7651 15.9719 14.7742 15.9719ZM62.1686 24.6353V27.7683H64.9837V24.6353H62.1686Z" fill="white"/>
</svg>
