<svg width="120" height="39" viewBox="0 0 120 39" fill="none" xmlns="http://www.w3.org/2000/svg">
<g clip-path="url(#clip0_7_313)">
<path fill-rule="evenodd" clip-rule="evenodd" d="M9.32721 28.6316H16.9488L20.2541 21.7488H26.3982L28.8477 17.0439H22.6648L23.7925 14.8272L29.9758 14.8272L32.1921 9.96654L20.0596 9.96654C18.7789 10.0244 17.9299 10.6839 17.3765 11.7551L9.32721 28.6316ZM83.6351 28.6316H91.6848L95.9657 24.6496L97.5174 28.6316L105.528 28.6316L101.816 19.2069L111.75 9.96654L103.7 9.96654L99.6585 13.7259L98.1783 9.96654L90.2456 9.96654L93.8246 19.1531L83.6351 28.6316ZM73.3886 12.9293C78.1992 8.92855 84.7869 8.72724 87.6691 12.1919C90.5507 15.6566 89.3757 21.9054 84.5651 25.9066C79.755 29.9074 73.1277 30.1474 70.246 26.6827C67.3643 23.2181 68.5786 16.9305 73.3886 12.9293ZM76.9704 17.1045C78.6902 15.6734 81.0467 15.6019 82.077 16.8412C83.1072 18.0796 82.6868 20.3141 80.967 21.7447C79.2463 23.1762 76.8775 23.2622 75.8468 22.022C74.8156 20.7837 75.2496 18.5355 76.9704 17.1045ZM42.6521 28.6316L49.146 28.6316L54.6293 17.8605L57.3433 27.9954C57.5169 28.5146 57.7405 28.587 58.2165 28.6316H63.3394L72.2054 9.96654L65.7506 9.96654L61.3564 18.9491L59.2176 11.2108C59.0367 10.4712 58.6086 10.0563 57.9345 9.96654H51.5185L42.6521 28.6316ZM25.6212 28.6316H38.681C39.8087 28.5497 40.2036 28.1894 40.6458 27.3167L42.4403 23.9181L35.5087 23.9136L36.5481 21.7488H43.3144L45.7643 17.0439H38.9593L40.0865 14.8272L46.892 14.8272L49.1082 9.96654L36.3536 9.96654C35.0733 10.0244 34.2239 10.6839 33.6705 11.7551L25.6212 28.6316Z" fill="white"/>
</g>
<defs>
<clipPath id="clip0_7_313">
<rect width="37.5" height="120" fill="white" transform="matrix(0 1 -1 0 120 0.75)"/>
</clipPath>
</defs>
</svg>
