<svg width="40" height="41" viewBox="0 0 40 41" fill="none" xmlns="http://www.w3.org/2000/svg">
<path fill-rule="evenodd" clip-rule="evenodd" d="M10.7484 20.3289C15.6233 18.205 18.874 16.8048 20.5005 16.1283C25.1444 14.1967 26.1094 13.8612 26.7383 13.8501C26.8766 13.8477 27.186 13.8819 27.3863 14.0445C27.5555 14.1818 27.602 14.3672 27.6243 14.4974C27.6466 14.6275 27.6743 14.924 27.6523 15.1557C27.4006 17.7998 26.3117 24.2166 25.7577 27.1781C25.5233 28.4312 25.0617 28.8514 24.6149 28.8925C23.6438 28.9819 22.9064 28.2508 21.9659 27.6342C20.4941 26.6694 19.6626 26.0689 18.234 25.1274C16.583 24.0395 17.6533 23.4415 18.5942 22.4642C18.8404 22.2085 23.1191 18.3167 23.2019 17.9637C23.2123 17.9195 23.2219 17.7549 23.1241 17.668C23.0263 17.5811 22.882 17.6108 22.7779 17.6345C22.6302 17.668 20.2791 19.222 15.7243 22.2966C15.057 22.7548 14.4525 22.9781 13.9109 22.9664C13.3138 22.9535 12.1653 22.6288 11.3115 22.3513C10.2642 22.0109 9.43192 21.8309 9.5044 21.2528C9.54215 20.9517 9.95683 20.6437 10.7484 20.3289Z" fill="white"/>
</svg>
