<svg width="40" height="41" viewBox="0 0 40 41" fill="none" xmlns="http://www.w3.org/2000/svg">
<path fill-rule="evenodd" clip-rule="evenodd" d="M28.1739 13.3454C29.0911 13.5909 29.8119 14.3117 30.0573 15.2288C30.501 16.8895 30.5028 20.3564 30.5028 20.3564C30.5028 20.3564 30.5028 23.8233 30.0573 25.4839C29.8119 26.4011 29.0911 27.1218 28.1739 27.3673C26.5133 27.8127 19.8513 27.8127 19.8513 27.8127C19.8513 27.8127 13.1894 27.8127 11.5287 27.3673C10.6116 27.1218 9.89087 26.4011 9.64537 25.4839C9.19995 23.8233 9.19995 20.3564 9.19995 20.3564C9.19995 20.3564 9.19995 16.8895 9.64537 15.2288C9.89087 14.3117 10.6116 13.5909 11.5287 13.3454C13.1894 12.9 19.8513 12.9 19.8513 12.9C19.8513 12.9 26.5133 12.9 28.1739 13.3454ZM23.2535 20.3566L17.7191 23.5516V17.1615L23.2535 20.3566Z" fill="white"/>
</svg>
