<svg width="160" height="50" viewBox="0 0 160 50" fill="none" xmlns="http://www.w3.org/2000/svg">
<g clip-path="url(#clip0_7_377)">
<path fill-rule="evenodd" clip-rule="evenodd" d="M12.4363 37.1755H22.5984L27.0054 27.9984H35.1976L38.4635 21.7252H30.2198L31.7234 18.7696H39.9678L42.9228 12.2887L26.7461 12.2887C25.0385 12.3658 23.9065 13.2452 23.1687 14.6735L12.4363 37.1755ZM111.513 37.1755L122.246 37.1755L127.954 31.8661L130.023 37.1755H140.704L135.755 24.6091L149 12.2887L138.267 12.2887L132.878 17.3012L130.904 12.2887L120.327 12.2887L125.099 24.5375L111.513 37.1755ZM97.8515 16.2391C104.266 10.9047 113.049 10.6363 116.892 15.2559C120.734 19.8754 119.168 28.2073 112.753 33.5422C106.34 38.8765 97.5036 39.1965 93.6613 34.577C89.8191 29.9574 91.4381 21.574 97.8515 16.2391ZM102.627 21.806C104.92 19.8979 108.062 19.8025 109.436 21.4549C110.81 23.1061 110.249 26.0854 107.956 27.9929C105.662 29.9016 102.503 30.0163 101.129 28.3627C99.7541 26.7115 100.333 23.714 102.627 21.806ZM56.8695 37.1755H65.528L72.839 22.814L76.4578 36.3272C76.6892 37.0194 76.9873 37.116 77.6219 37.1755H84.4526L96.2738 12.2887L87.6675 12.2887L81.8085 24.2654L78.9567 13.9478C78.7156 12.9616 78.1448 12.4084 77.246 12.2887L68.6913 12.2887L56.8695 37.1755ZM34.1616 37.1755L51.5746 37.1755C53.0783 37.0662 53.6048 36.5858 54.1944 35.4223L56.5871 30.8908L47.345 30.8847L48.7308 27.9984L57.7525 27.9984L61.019 21.7252L51.9457 21.7252L53.4487 18.7696L62.5226 18.7696L65.4776 12.2887L48.4715 12.2887C46.7644 12.3658 45.6318 13.2452 44.894 14.6735L34.1616 37.1755Z" fill="#E51C2F"/>
</g>
<defs>
<clipPath id="clip0_7_377">
<rect width="50" height="160" fill="white" transform="matrix(0 1 -1 0 160 0)"/>
</clipPath>
</defs>
</svg>
