<svg width="40" height="41" viewBox="0 0 40 41" fill="none" xmlns="http://www.w3.org/2000/svg">
<path d="M15.722 14.8568C15.5359 14.8297 15.3461 14.8672 15.1843 14.963H15.1703C14.7948 15.1832 14.4564 15.4606 14.168 15.787C13.9277 16.0643 13.7975 16.3447 13.7635 16.615C13.7435 16.7752 13.7575 16.9374 13.8046 17.0906L13.8226 17.1006C14.0929 17.8946 14.4454 18.6586 14.8759 19.3775C15.431 20.3872 16.1142 21.3211 16.9084 22.156L16.9325 22.19L16.9705 22.218L16.9935 22.2451L17.0216 22.2691C17.8594 23.0657 18.7954 23.7521 19.8071 24.3117C20.9635 24.9415 21.6654 25.2388 22.0869 25.363V25.369C22.2101 25.407 22.3222 25.4241 22.4354 25.4241C22.7944 25.3975 23.1341 25.2516 23.4006 25.0095C23.726 24.7212 24.0013 24.3818 24.2156 24.0043V23.9973C24.4168 23.6168 24.3488 23.2583 24.0584 23.015C23.4752 22.5054 22.8445 22.0528 22.175 21.6634C21.7265 21.42 21.2709 21.5672 21.0867 21.8135L20.6932 22.3102C20.4909 22.5565 20.1245 22.5224 20.1245 22.5224L20.1145 22.5284C17.38 21.8306 16.6501 19.0621 16.6501 19.0621C16.6501 19.0621 16.6161 18.6856 16.8694 18.4934L17.362 18.0969C17.5983 17.9046 17.7625 17.4501 17.5092 17.0015C17.1223 16.3314 16.6706 15.701 16.1605 15.1192C16.0492 14.9822 15.8932 14.889 15.7199 14.8558L15.722 14.8568ZM20.3427 13.6533C20.21 13.6533 20.0826 13.7061 19.9887 13.8C19.8949 13.8938 19.8421 14.0212 19.8421 14.1539C19.8421 14.2867 19.8949 14.4141 19.9887 14.5079C20.0826 14.6018 20.21 14.6546 20.3427 14.6546C21.6083 14.6546 22.6596 15.0681 23.4917 15.8611C23.9192 16.2946 24.2526 16.8083 24.4709 17.371C24.6902 17.9347 24.7903 18.5364 24.7643 19.1392C24.7587 19.272 24.8061 19.4015 24.896 19.4993C24.986 19.5972 25.1111 19.6553 25.2439 19.6608C25.3766 19.6664 25.5062 19.619 25.604 19.5291C25.7019 19.4391 25.76 19.314 25.7655 19.1812C25.7966 18.4398 25.6735 17.7 25.4041 17.0085C25.1335 16.3138 24.7232 15.682 24.1986 15.1522L24.1886 15.1422C23.1563 14.1559 21.8506 13.6533 20.3427 13.6533Z" fill="white"/>
<path d="M20.3078 15.2996C20.175 15.2996 20.0476 15.3523 19.9538 15.4462C19.8599 15.5401 19.8071 15.6674 19.8071 15.8002C19.8071 15.933 19.8599 16.0603 19.9538 16.1542C20.0476 16.2481 20.175 16.3008 20.3078 16.3008H20.3248C21.2379 16.3659 21.9028 16.6703 22.3683 17.1699C22.8459 17.6846 23.0932 18.3244 23.0742 19.1154C23.0712 19.2481 23.121 19.3767 23.2127 19.4727C23.3044 19.5688 23.4306 19.6245 23.5633 19.6275C23.6961 19.6306 23.8247 19.5807 23.9207 19.489C24.0167 19.3973 24.0724 19.2712 24.0755 19.1384C24.0995 18.1001 23.7651 17.204 23.1023 16.4891V16.4871C22.4244 15.7602 21.4942 15.3757 20.3748 15.3006L20.3578 15.2986L20.3078 15.2996Z" fill="white"/>
<path d="M20.2888 16.9765C20.2218 16.9706 20.1543 16.9783 20.0903 16.999C20.0263 17.0198 19.9672 17.0532 19.9164 17.0973C19.8656 17.1415 19.8243 17.1953 19.7948 17.2558C19.7653 17.3162 19.7483 17.382 19.7448 17.4492C19.7413 17.5164 19.7514 17.5835 19.7744 17.6467C19.7975 17.7099 19.833 17.7678 19.8789 17.817C19.9248 17.8661 19.9802 17.9055 20.0416 17.9328C20.1031 17.9601 20.1695 17.9747 20.2367 17.9758C20.6552 17.9978 20.9226 18.124 21.0908 18.2932C21.26 18.4634 21.3861 18.7368 21.4092 19.1643C21.4104 19.2315 21.4252 19.2977 21.4526 19.3591C21.48 19.4204 21.5194 19.4756 21.5686 19.5214C21.6178 19.5672 21.6757 19.6026 21.7389 19.6256C21.802 19.6485 21.8692 19.6585 21.9363 19.6549C22.0034 19.6513 22.0691 19.6343 22.1294 19.6048C22.1898 19.5753 22.2436 19.534 22.2877 19.4832C22.3318 19.4325 22.3652 19.3734 22.3859 19.3095C22.4066 19.2456 22.4143 19.1782 22.4084 19.1112C22.3764 18.5105 22.1881 17.9798 21.8027 17.5893C21.4152 17.1988 20.8875 17.0086 20.2888 16.9765Z" fill="white"/>
<path fill-rule="evenodd" clip-rule="evenodd" d="M14.8228 11.0341C18.0089 10.322 21.3129 10.322 24.499 11.0341L24.8384 11.1092C25.7698 11.3174 26.6252 11.7798 27.3095 12.4449C27.9939 13.1101 28.4805 13.9519 28.7152 14.877C29.524 18.0638 29.524 21.4022 28.7152 24.5891C28.4805 25.5142 27.9939 26.356 27.3095 27.0211C26.6252 27.6863 25.7698 28.1486 24.8384 28.3568L24.498 28.4319C22.5025 28.8782 20.4549 29.0463 18.4133 28.9315L15.757 31.3085C15.6569 31.3982 15.5345 31.4593 15.4027 31.4856C15.2708 31.5118 15.1344 31.5022 15.0075 31.4577C14.8807 31.4132 14.7681 31.3354 14.6816 31.2326C14.595 31.1297 14.5376 31.0056 14.5155 30.873L14.0759 28.2477C13.233 27.9854 12.4715 27.5114 11.8641 26.8708C11.2567 26.2303 10.8237 25.4447 10.6066 24.5891C9.79781 21.4022 9.79781 18.0638 10.6066 14.877C10.8413 13.9519 11.3279 13.1101 12.0123 12.4449C12.6967 11.7798 13.5521 11.3174 14.4834 11.1092L14.8228 11.0341ZM24.1716 12.499C21.2011 11.8349 18.1207 11.8349 15.1503 12.499L14.8098 12.5751C14.1497 12.7229 13.5435 13.0508 13.0585 13.5224C12.5735 13.994 12.2287 14.5907 12.0624 15.2464C11.3152 18.1908 11.3152 21.2752 12.0624 24.2197C12.2288 24.8755 12.5737 25.4723 13.0589 25.9439C13.5441 26.4155 14.1505 26.7433 14.8108 26.891L14.9009 26.911C15.0467 26.9436 15.1795 27.019 15.2822 27.1274C15.3849 27.2358 15.453 27.3725 15.4777 27.5198L15.772 29.28L17.6464 27.6029C17.7212 27.5357 17.8088 27.4843 17.9039 27.4516C17.999 27.4189 18.0997 27.4057 18.2001 27.4126C20.2016 27.5546 22.2132 27.4045 24.1716 26.9671L24.511 26.891C25.1713 26.7433 25.7777 26.4155 26.2629 25.9439C26.7481 25.4723 27.093 24.8755 27.2594 24.2197C28.0064 21.276 28.0064 18.1911 27.2594 15.2464C27.093 14.5906 26.7481 13.9937 26.2629 13.5222C25.7777 13.0506 25.1713 12.7227 24.511 12.5751L24.1716 12.499Z" fill="white"/>
</svg>
