<svg width="40" height="41" viewBox="0 0 40 41" fill="none" xmlns="http://www.w3.org/2000/svg">
<path d="M20.7686 27.4113C13.917 27.4113 10.0104 22.7233 9.8501 14.91H13.296C13.4061 20.6398 15.9304 23.0639 17.9338 23.5647V14.91H21.1693V19.8484C23.1427 19.6381 25.2262 17.3842 25.9274 14.9H29.1529C28.8899 16.186 28.3645 17.4039 27.6096 18.4776C26.8547 19.5514 25.8865 20.4579 24.7654 21.1406C26.0165 21.7633 27.1213 22.6441 28.0071 23.725C28.8929 24.8059 29.5394 26.0623 29.9042 27.4113H26.3481C25.5868 25.0372 23.6836 23.1941 21.1693 22.9437V27.4113H20.7787H20.7686Z" fill="white"/>
</svg>
